<svg xmlns="http://www.w3.org/2000/svg" version="1.1" xmlns:xlink="http://www.w3.org/1999/xlink" xmlns:svgjs="http://svgjs.dev/svgjs" width="1000" height="348" viewBox="0 0 1000 348"><g transform="matrix(1,0,0,1,-0.6060606060606233,0.16627070356034324)"><svg viewBox="0 0 396 138" data-background-color="#ffffff" preserveAspectRatio="xMidYMid meet" height="348" width="1000" xmlns="http://www.w3.org/2000/svg" xmlns:xlink="http://www.w3.org/1999/xlink"><g id="tight-bounds" transform="matrix(1,0,0,1,0.2400000000000091,-0.06593493417048535)"><svg viewBox="0 0 395.52 138.13186986834097" height="138.13186986834097" width="395.52"><g><svg viewBox="0 0 659.9578141075217 230.48444300388084" height="138.13186986834097" width="395.52"><g transform="matrix(1,0,0,1,0,23.384864594538584)"><svg viewBox="0 0 395.52 183.71471381480367" height="183.71471381480367" width="395.52"><g><svg viewBox="0 0 395.52 183.71471381480367" height="183.71471381480367" width="395.52"><g><svg viewBox="0 0 395.52 183.71471381480367" height="183.71471381480367" width="395.52"><g transform="matrix(1,0,0,1,0,0)"><svg width="395.52" viewBox="-5.100000000000005 -35.75 171.39999999999998 74.5" height="183.71471381480367" data-palette-color="#1e55b3"><svg></svg><svg></svg><g class="undefined-text-0" data-fill-palette-color="primary" id="text-0"><path transform="translate(33.5,0)" d="M-0.55-2.15h4.85v-32.8h25.2v6.95h-17.4v7.2h15.65v6.65h-15.65v7.25h17.95v4.75h4.85v2.15h-35.45zM69.25-2.15h5.8v2.15h-13.15l-3.25-7.55h-14.65l-3.25 7.55h-13.15v-2.15h5.75l14.2-32.8h7.55zM55.7-14.4l-4.35-10.15-4.4 10.15zM95.2-2.15h6.4v2.15h-31.9v-2.15h6.8c-1.833-0.933-3.5-2.133-5-3.6v0l4.65-5.7c3.767 3.3 7.25 4.95 10.45 4.95v0c1.433 0 2.56-0.31 3.38-0.93 0.813-0.613 1.22-1.447 1.22-2.5 0-1.047-0.433-1.88-1.3-2.5-0.867-0.613-2.583-1.237-5.15-1.87v0c-4.067-0.967-7.04-2.223-8.92-3.77-1.887-1.553-2.83-3.99-2.83-7.31 0-3.313 1.193-5.87 3.58-7.67 2.38-1.8 5.353-2.7 8.92-2.7v0c2.333 0 4.667 0.4 7 1.2 2.333 0.8 4.367 1.933 6.1 3.4v0l-3.95 5.7c-3.033-2.3-6.167-3.45-9.4-3.45v0c-1.3 0-2.323 0.307-3.07 0.92-0.753 0.62-1.13 1.437-1.13 2.45 0 1.02 0.46 1.83 1.38 2.43 0.913 0.6 3.03 1.307 6.35 2.12 3.313 0.82 5.887 2.047 7.72 3.68 1.833 1.633 2.75 3.9 2.75 6.8v0c0 3.6-1.35 6.383-4.05 8.35zM120.7-2.15h11.55v2.15h-30.9v-2.15h11.55v-11.65l-12.1-21.15h8.45l7.55 13 7.55-13h8.45l-12.1 21.15z" fill="#1e55b3" fill-rule="nonzero" stroke="none" stroke-width="1" stroke-linecap="butt" stroke-linejoin="miter" stroke-miterlimit="10" stroke-dasharray="" stroke-dashoffset="0" font-family="none" font-weight="none" font-size="none" text-anchor="none" style="mix-blend-mode: normal" data-fill-palette-color="primary" opacity="1"></path><path transform="translate(0,38.75)" d="M36.55-2.15h5.8v2.15h-13.15l-3.25-7.55h-14.65l-3.25 7.55h-13.15v-2.15h5.75l14.2-32.8h7.55zM23-14.4l-4.35-10.15-4.4 10.15zM49.35-2.15h21.75v2.15h-34.4v-2.15h4.85v-32.8h12.35c5.367 0 9.277 1.04 11.73 3.12 2.447 2.087 3.67 5.287 3.67 9.6 0 4.32-1.257 7.48-3.77 9.48-2.52 2-6.363 3-11.53 3v0h-4.65zM54.6-16.5c2.6 0 4.367-0.523 5.3-1.57 0.933-1.053 1.4-2.59 1.4-4.61 0-2.013-0.607-3.447-1.82-4.3-1.22-0.847-3.113-1.27-5.68-1.27v0h-4.45v11.75zM83.2-2.15h21.75v2.15h-34.4v-2.15h4.85v-32.8h12.35c5.367 0 9.273 1.04 11.72 3.12 2.453 2.087 3.68 5.287 3.68 9.6 0 4.32-1.257 7.48-3.77 9.48-2.52 2-6.363 3-11.53 3v0h-4.65zM88.45-16.5c2.6 0 4.367-0.523 5.3-1.57 0.933-1.053 1.4-2.59 1.4-4.61 0-2.013-0.61-3.447-1.83-4.3-1.213-0.847-3.103-1.27-5.67-1.27v0h-4.45v11.75zM131.95-2.15h4.85v2.15h-32.4v-2.15h4.85v-32.8h7.8v28h14.9zM149.65-2.15h11.55v2.15h-30.9v-2.15h11.55v-11.65l-12.1-21.15h8.45l7.55 13 7.55-13h8.45l-12.1 21.15z" fill="#2a7bd1" fill-rule="nonzero" stroke="none" stroke-width="1" stroke-linecap="butt" stroke-linejoin="miter" stroke-miterlimit="10" stroke-dasharray="" stroke-dashoffset="0" font-family="none" font-weight="none" font-size="none" text-anchor="none" style="mix-blend-mode: normal" data-fill-palette-color="secondary" opacity="1"></path></g></svg></g></svg></g></svg></g></svg></g><g transform="matrix(1,0,0,1,415.5264541075217,0)"><svg viewBox="0 0 244.43136 230.48444300388084" height="230.48444300388084" width="244.43136"><g><svg xmlns="http://www.w3.org/2000/svg" xmlns:xlink="http://www.w3.org/1999/xlink" version="1.1" x="0" y="0" viewBox="16 29.69413938660403 480 452.61186061339595" style="enable-background:new 0 0 512 512;" xml:space="preserve" height="230.48444300388084" width="244.43136" class="icon-icon-0" data-fill-palette-color="accent" id="icon-0"><g fill="#1e55b3" data-fill-palette-color="accent"><g fill="#1e55b3" data-fill-palette-color="accent"><g fill="#1e55b3" data-fill-palette-color="accent"><g fill="#1e55b3" data-fill-palette-color="accent"><path d="M488.215 280.456c0-1.556-0.572-2.959-1.612-3.943-0.983-0.988-2.382-1.611-3.893-1.611-1.45 0-2.854 0.623-3.842 1.556-1.034 1.04-1.657 2.443-1.657 3.999 0 1.506 0.623 2.905 1.657 3.944 0.988 0.932 2.392 1.606 3.842 1.606 1.511 0 2.909-0.675 3.893-1.606C487.643 283.361 488.215 281.962 488.215 280.456zM492.158 271.114c2.336 2.438 3.842 5.708 3.842 9.342 0 3.635-1.506 7.005-3.893 9.443l-0.158 0.106c-2.387 2.336-5.605 3.786-9.239 3.786-3.629 0-6.903-1.505-9.286-3.893l-0.162-0.152c-2.331-2.387-3.73-5.712-3.73-9.291 0-3.685 1.5-7.01 3.837-9.448l0.157-0.156c2.388-2.332 5.605-3.786 9.185-3.786 3.69 0 6.954 1.505 9.347 3.942L492.158 271.114z" fill="#1e55b3" data-fill-palette-color="accent"></path><path d="M461.848 53.74c1.865 1.09 2.494 3.426 1.449 5.297-0.359 0.624-0.826 1.09-1.449 1.455l-14.066 8.201c-1.869 1.09-4.201 0.411-5.297-1.455-1.033-1.82-0.414-4.207 1.455-5.297l8.308-4.825-8.308-4.881c-1.869-1.034-2.488-3.477-1.455-5.342 1.096-1.87 3.428-2.443 5.297-1.348L461.848 53.74z" fill="#1e55b3" data-fill-palette-color="accent"></path><path d="M383.425 464.038c2.124 0 3.837 1.713 3.837 3.893 0 2.124-1.713 3.894-3.837 3.894h-20.143c-2.129 0-3.894-1.77-3.894-3.894 0-2.18 1.765-3.893 3.894-3.893H383.425z" fill="#1e55b3" data-fill-palette-color="accent"></path><path d="M369.979 474.47c2.072 0 3.842 1.764 3.842 3.943 0 2.129-1.77 3.893-3.842 3.893h-43.029c-2.179 0-3.893-1.764-3.893-3.893 0-2.18 1.714-3.943 3.893-3.943H369.979z" fill="#1e55b3" data-fill-palette-color="accent"></path><path d="M260.049 200.316c-8.825 4.567-16.352 11.419-22.475 20.604-0.674 1.146-1.921 1.871-3.27 1.871-2.182 0-3.893-1.764-3.893-3.943v-21.542h-19.31v172.06h22.421v-94.256c0-11.937 1.194-21.953 3.634-30.154 1.921-6.336 4.567-11.627 7.94-15.834 1.143-1.399 2.387-2.646 3.685-3.787 5.086-4.465 10.589-7.785 16.506-10.016 5.915-2.235 12.404-3.376 19.205-3.376 4.309 0 8.354 0.517 12.195 1.556 3.843 0.988 7.371 2.494 10.645 4.415l0.254 0.152c3.273 2.078 6.128 4.465 8.465 7.218 2.28 2.747 4.15 5.864 5.449 9.291l0.05 0.101c1.247 3.32 2.286 7.578 2.854 12.51 0.678 4.876 0.988 10.431 0.988 16.818v105.361h22.418V262.808c0-6.954-0.152-12.819-0.359-17.543-0.311-4.825-0.725-8.616-1.247-11.369-0.776-4.045-1.972-7.836-3.422-11.364-1.46-3.477-3.224-6.695-5.246-9.656-1.972-2.747-4.567-5.342-7.628-7.628-3.062-2.388-6.752-4.41-11.004-6.229-4.202-1.866-8.668-3.27-13.392-4.151-4.617-0.988-9.499-1.455-14.634-1.455C279.147 193.412 268.873 195.699 260.049 200.316zM238.145 207.635c5.398-5.971 11.523-10.69 18.374-14.223 9.962-5.241 21.489-7.836 34.363-7.836 5.551 0 10.948 0.573 16.139 1.607 5.141 0.988 10.122 2.595 14.896 4.623 4.775 2.022 9.028 4.41 12.611 7.162 3.735 2.752 6.797 5.915 9.291 9.448 2.388 3.371 4.41 7.162 6.072 11.156 1.662 3.943 2.96 8.252 3.893 12.768v0.056c0.573 3.006 1.039 7.212 1.297 12.454 0.315 5.14 0.518 11.105 0.518 17.958v110.451c0 2.129-1.764 3.893-3.893 3.893h-30.203c-2.129 0-3.894-1.764-3.894-3.893V264.004c0-6.18-0.208-11.42-0.831-15.835-0.521-4.303-1.297-7.886-2.438-10.639l-0.051-0.208c-0.989-2.595-2.337-4.927-4.157-7.005-1.764-2.078-3.994-4-6.589-5.606l-0.102-0.051c-2.701-1.612-5.555-2.854-8.668-3.685-3.172-0.781-6.543-1.197-10.279-1.197-5.92 0-11.42 0.989-16.503 2.854-5.09 1.921-9.813 4.775-14.018 8.566h-0.104c-4.098 3.634-7.212 8.926-9.288 15.987-2.233 7.471-3.376 16.818-3.376 27.923v98.149c0 2.129-1.71 3.893-3.893 3.893H207.21c-2.129 0-3.842-1.764-3.842-3.893V193.412c0-2.179 1.713-3.943 3.842-3.943h27.095c2.126 0 3.84 1.764 3.84 3.943V207.635z" fill="#1e55b3" data-fill-palette-color="accent"></path><path d="M177.832 369.365v-172.06h-22.475v172.06H177.832zM185.618 193.412v179.847c0 2.129-1.713 3.893-3.893 3.893h-30.207c-2.129 0-3.893-1.764-3.893-3.893V193.412c0-2.179 1.764-3.943 3.893-3.943h30.207C183.905 189.469 185.618 191.233 185.618 193.412z" fill="#1e55b3" data-fill-palette-color="accent"></path><path d="M184.166 158.018c0-5.454-2.129-10.279-5.606-13.756-3.477-3.584-8.305-5.708-13.65-5.708-5.244 0-9.965 2.073-13.445 5.5l-0.154 0.208c-3.477 3.477-5.606 8.302-5.606 13.756 0 5.342 2.129 10.173 5.606 13.701 3.477 3.477 8.305 5.657 13.599 5.657 5.345 0 10.173-2.18 13.65-5.657C182.037 168.191 184.166 163.31 184.166 158.018zM184.008 138.707c4.881 4.932 7.889 11.734 7.889 19.312 0 7.471-3.008 14.324-7.889 19.256-4.825 4.876-11.625 7.993-19.099 7.993s-14.169-3.117-19.048-7.993c-4.881-4.932-7.889-11.785-7.889-19.256 0-7.578 3.008-14.38 7.836-19.312l0.208-0.208c4.932-4.825 11.575-7.786 18.894-7.786C172.383 130.713 179.079 133.724 184.008 138.707z" fill="#1e55b3" data-fill-palette-color="accent"></path><path d="M100.859 464.246c1.767-1.871 4.362-3.011 7.215-3.011 2.803 0 5.398 1.14 7.215 3.011 1.868 1.865 3.011 4.46 3.011 7.313 0 2.859-1.143 5.455-3.011 7.319-1.817 1.871-4.412 3.063-7.215 3.063-2.854 0-5.449-1.191-7.215-3.063-1.868-1.864-3.062-4.46-3.062-7.319C97.798 468.706 98.992 466.111 100.859 464.246zM106.311 473.38c0.467 0.415 1.037 0.725 1.764 0.725 0.674 0 1.298-0.31 1.817-0.725 0.416-0.467 0.674-1.09 0.674-1.82 0-0.673-0.258-1.348-0.674-1.813-0.519-0.416-1.143-0.726-1.817-0.726-0.728 0-1.297 0.31-1.764 0.726-0.466 0.466-0.727 1.141-0.727 1.813C105.583 472.29 105.845 472.913 106.311 473.38z" fill="#1e55b3" data-fill-palette-color="accent"></path><path d="M70.029 42.27c0.624 2.078-0.621 4.207-2.646 4.83l-6.954 1.815c-2.025 0.573-4.101-0.674-4.724-2.752-0.519-2.073 0.728-4.202 2.75-4.774l6.903-1.865C67.434 39.001 69.512 40.197 70.029 42.27z" fill="#1e55b3" data-fill-palette-color="accent"></path><path d="M60.48 59.088c0.57 2.129-0.728 4.258-2.75 4.775-2.078 0.572-4.154-0.675-4.724-2.697l-1.817-6.853c-0.57-2.079 0.674-4.203 2.752-4.775 2.075-0.517 4.151 0.674 4.671 2.803L60.48 59.088z" fill="#1e55b3" data-fill-palette-color="accent"></path><path d="M100.654 431.857h292.107c5.92 0 11.476-1.247 16.559-3.325 5.348-2.281 10.173-5.499 14.168-9.55 4.055-4.044 7.268-8.875 9.498-14.272 2.078-5.135 3.324-10.797 3.324-16.763v-268.03c0-5.916-1.246-11.623-3.324-16.813-2.23-5.347-5.499-10.173-9.498-14.223-3.995-3.999-8.77-7.319-14.111-9.549-5.14-2.129-10.695-3.325-16.615-3.325H100.654c-5.867 0-11.473 1.196-16.61 3.325-5.243 2.23-10.122 5.5-14.119 9.549s-7.212 8.926-9.445 14.273c-2.076 5.14-3.27 10.847-3.27 16.762v268.03c0 5.966 1.194 11.628 3.27 16.763 2.233 5.347 5.449 10.229 9.445 14.272 3.997 4.051 8.875 7.269 14.169 9.55C89.181 430.61 94.787 431.857 100.654 431.857zM392.762 439.643H100.654c-6.853 0-13.496-1.403-19.517-3.943-6.28-2.596-11.937-6.438-16.661-11.212-4.724-4.724-8.46-10.486-11.108-16.817-2.491-6.073-3.893-12.768-3.893-19.723v-268.03c0-6.954 1.401-13.65 3.893-19.773 2.595-6.331 6.384-11.988 11.108-16.767 4.724-4.775 10.38-8.561 16.661-11.207 6.021-2.544 12.664-3.949 19.517-3.949h292.107c6.954 0 13.498 1.404 19.57 3.949 6.279 2.646 11.886 6.432 16.609 11.207 4.725 4.779 8.617 10.436 11.161 16.767 2.54 6.123 3.944 12.819 3.944 19.773v268.03c0 7.005-1.404 13.649-3.944 19.773-2.651 6.28-6.437 12.043-11.161 16.767-4.724 4.774-10.33 8.616-16.609 11.212C406.26 438.239 399.615 439.643 392.762 439.643z" fill="#1e55b3" data-fill-palette-color="accent"></path><path d="M55.186 39.107c0.519 2.073-0.728 4.252-2.75 4.774-2.129 0.568-4.205-0.73-4.724-2.752l-1.764-6.539c-0.52-2.128 0.674-4.207 2.75-4.774 2.025-0.522 4.205 0.674 4.724 2.803L55.186 39.107z" fill="#1e55b3" data-fill-palette-color="accent"></path><path d="M50.827 47.516c0.57 2.022-0.677 4.202-2.699 4.775l-7.061 1.865c-2.022 0.573-4.202-0.674-4.721-2.696-0.52-2.129 0.674-4.258 2.75-4.775l7.007-1.972C48.178 44.191 50.254 45.387 50.827 47.516z" fill="#1e55b3" data-fill-palette-color="accent"></path><polygon points="40.289,268.621 32.868,270.852 30.843,263.847 30.843,263.796 38.213,261.561     " fill="#1e55b3" data-fill-palette-color="accent"></polygon><polygon points="34.944,277.861 27.625,280.092 25.496,273.087 25.496,273.03 32.868,270.852     " fill="#1e55b3" data-fill-palette-color="accent"></polygon><polygon points="30.843,263.796 30.843,263.847 23.474,266.077 21.398,259.021 28.768,256.842     " fill="#1e55b3" data-fill-palette-color="accent"></polygon><polygon points="23.42,266.077 25.496,273.03 25.496,273.087 18.126,275.316 16,268.256 23.42,266.026     " fill="#1e55b3" data-fill-palette-color="accent"></polygon></g></g></g></g></svg></g></svg></g></svg></g><defs></defs></svg><rect width="395.52" height="138.13186986834097" fill="none" stroke="none" visibility="hidden"></rect></g></svg></g></svg>