<?xml version="1.0" encoding="UTF-8"?>
<svg id="Layer_1" data-name="Layer 1" xmlns="http://www.w3.org/2000/svg" viewBox="0 0 512 512">
  <defs>
    <style>
      .cls-1 {
        fill: #fff;
      }

      .cls-2 {
        fill: #3159a8;
      }
    </style>
  </defs>
  <circle class="cls-1" cx="257.3" cy="256" r="256"/>
  <g id="Layer_1-2" data-name="Layer 1-2">
    <g>
      <path class="cls-2" d="M449.95,283.95c0-1.24-.45-2.36-1.28-3.14-.79-.79-1.9-1.28-3.1-1.28s-2.27,.5-3.07,1.24c-.82,.83-1.32,1.95-1.32,3.19s.5,2.32,1.32,3.15c.79,.74,1.91,1.28,3.07,1.28s2.32-.54,3.1-1.28c.83-.83,1.28-1.95,1.28-3.15Zm3.14-7.46c1.87,1.95,3.07,4.56,3.07,7.46s-1.2,5.59-3.1,7.53l-.13,.08c-1.9,1.87-4.47,3.02-7.37,3.02s-5.51-1.2-7.41-3.1l-.13-.12c-1.86-1.9-2.98-4.56-2.98-7.41s1.19-5.59,3.06-7.54l.13-.12c1.9-1.86,4.47-3.02,7.33-3.02s5.55,1.2,7.46,3.14l.08,.08h0Z"/>
      <path class="cls-2" d="M428.91,103.06c1.49,.87,1.99,2.73,1.16,4.22-.29,.5-.66,.87-1.16,1.16l-11.23,6.54c-1.49,.87-3.35,.32-4.22-1.16-.82-1.45-.33-3.35,1.16-4.22l6.63-3.85-6.63-3.9c-1.49-.82-1.99-2.77-1.16-4.26,.88-1.5,2.73-1.95,4.22-1.07,0,0,11.23,6.54,11.23,6.54Z"/>
      <path class="cls-2" d="M366.34,430.43c1.69,0,3.06,1.37,3.06,3.1s-1.37,3.1-3.06,3.1h-16.08c-1.7,0-3.1-1.41-3.1-3.1s1.41-3.1,3.1-3.1h16.08Z"/>
      <path class="cls-2" d="M355.6,438.75c1.65,0,3.07,1.41,3.07,3.14s-1.41,3.1-3.07,3.1h-34.33c-1.74,0-3.1-1.41-3.1-3.1s1.37-3.14,3.1-3.14h34.33Z"/>
      <path class="cls-2" d="M267.89,220.01c-7.04,3.64-13.05,9.11-17.93,16.44-.54,.91-1.53,1.5-2.61,1.5-1.74,0-3.1-1.41-3.1-3.14v-17.19h-15.41v137.28h17.89v-75.21c0-9.53,.95-17.52,2.9-24.06,1.53-5.05,3.64-9.28,6.34-12.63,.91-1.12,1.9-2.11,2.94-3.02,4.06-3.57,8.45-6.21,13.17-7.99,4.72-1.78,9.9-2.7,15.32-2.7,3.44,0,6.66,.42,9.73,1.24,3.07,.79,5.88,1.99,8.49,3.52l.2,.12c2.61,1.65,4.89,3.57,6.75,5.76,1.82,2.19,3.31,4.68,4.35,7.41l.04,.08c1,2.65,1.82,6.04,2.27,9.98,.54,3.89,.79,8.32,.79,13.42v84.07h17.89v-85.02c0-5.55-.12-10.23-.29-14-.25-3.85-.58-6.87-1-9.07-.62-3.23-1.57-6.25-2.73-9.06-1.16-2.77-2.58-5.34-4.18-7.71-1.57-2.19-3.64-4.26-6.09-6.09-2.44-1.9-5.39-3.52-8.78-4.97-3.35-1.49-6.92-2.61-10.69-3.31-3.69-.79-7.58-1.16-11.68-1.16-9.36,0-17.56,1.82-24.6,5.51l.02,.02Zm-17.48,5.84c4.31-4.77,9.19-8.53,14.66-11.35,7.95-4.18,17.15-6.25,27.42-6.25,4.43,0,8.73,.46,12.88,1.28,4.1,.79,8.08,2.07,11.88,3.69s7.21,3.52,10.06,5.71c2.98,2.2,5.42,4.72,7.41,7.54,1.9,2.69,3.52,5.71,4.84,8.9,1.33,3.14,2.36,6.59,3.1,10.19v.05c.46,2.4,.83,5.76,1.03,9.93,.25,4.1,.42,8.86,.42,14.33v88.13c0,1.7-1.41,3.1-3.1,3.1h-24.1c-1.7,0-3.1-1.41-3.1-3.1v-87.17c0-4.93-.17-9.11-.66-12.64-.42-3.43-1.03-6.29-1.95-8.49l-.04-.17c-.79-2.07-1.87-3.93-3.32-5.59-1.41-1.65-3.19-3.19-5.26-4.47l-.08-.04c-2.15-1.28-4.43-2.27-6.92-2.94-2.53-.62-5.22-.95-8.2-.95-4.72,0-9.11,.79-13.17,2.27-4.06,1.53-7.83,3.81-11.19,6.84h-.08c-3.27,2.9-5.76,7.12-7.41,12.76-1.78,5.96-2.7,13.42-2.7,22.28v78.31c0,1.7-1.37,3.1-3.1,3.1h-24.01c-1.7,0-3.07-1.41-3.07-3.1V214.5c0-1.74,1.37-3.14,3.07-3.14h21.62c1.7,0,3.07,1.41,3.07,3.14v11.35h0Z"/>
      <path class="cls-2" d="M202.29,354.89V217.61h-17.93v137.28h17.93Zm6.21-140.39v143.5c0,1.7-1.37,3.1-3.1,3.1h-24.1c-1.7,0-3.1-1.41-3.1-3.1V214.5c0-1.74,1.41-3.14,3.1-3.14h24.1c1.74,0,3.1,1.41,3.1,3.14h0Z"/>
      <path class="cls-2" d="M207.35,186.26c0-4.35-1.7-8.2-4.47-10.98-2.77-2.86-6.62-4.56-10.89-4.56s-7.95,1.65-10.73,4.39l-.12,.17c-2.77,2.77-4.47,6.62-4.47,10.98s1.7,8.12,4.47,10.93c2.77,2.77,6.62,4.52,10.85,4.52s8.12-1.74,10.89-4.52c2.77-2.82,4.47-6.71,4.47-10.93Zm-.13-15.41c3.9,3.94,6.29,9.36,6.29,15.41s-2.4,11.43-6.29,15.36c-3.85,3.89-9.28,6.38-15.24,6.38s-11.31-2.49-15.2-6.38c-3.9-3.94-6.29-9.4-6.29-15.36s2.4-11.47,6.25-15.41l.17-.17c3.94-3.85,9.24-6.21,15.08-6.21s11.31,2.4,15.24,6.38h0Z"/>
      <path class="cls-2" d="M140.88,430.6c1.41-1.5,3.48-2.4,5.76-2.4s4.31,.91,5.76,2.4c1.49,1.49,2.4,3.56,2.4,5.83s-.91,4.35-2.4,5.84c-1.45,1.5-3.52,2.45-5.76,2.45s-4.35-.95-5.76-2.45c-1.49-1.49-2.44-3.56-2.44-5.84s.95-4.34,2.44-5.83Zm4.35,7.29c.37,.33,.83,.58,1.41,.58,.54,0,1.03-.25,1.45-.58,.33-.37,.54-.87,.54-1.45,0-.54-.2-1.07-.54-1.44-.42-.33-.91-.58-1.45-.58-.58,0-1.03,.25-1.41,.58-.37,.37-.58,.91-.58,1.44,0,.58,.21,1.08,.58,1.45Z"/>
      <path class="cls-2" d="M116.28,93.9c.5,1.65-.5,3.35-2.11,3.85l-5.55,1.45c-1.62,.46-3.27-.54-3.77-2.2-.42-1.65,.58-3.35,2.19-3.81l5.51-1.49c1.65-.42,3.32,.54,3.72,2.19h0Z"/>
      <path class="cls-2" d="M108.66,107.33c.45,1.7-.58,3.4-2.19,3.81-1.65,.45-3.32-.54-3.77-2.15l-1.45-5.47c-.45-1.66,.54-3.35,2.2-3.81,1.65-.42,3.31,.54,3.72,2.24,0,0,1.49,5.39,1.49,5.39Z"/>
      <path class="cls-2" d="M140.71,404.75h233.07c4.72,0,9.16-1,13.21-2.65,4.27-1.82,8.12-4.39,11.3-7.62,3.23-3.23,5.8-7.08,7.58-11.38,1.65-4.09,2.65-8.61,2.65-13.38V155.86c0-4.72-1-9.28-2.65-13.42-1.78-4.27-4.39-8.12-7.58-11.35-3.19-3.19-7-5.84-11.26-7.62-4.1-1.7-8.54-2.65-13.26-2.65H140.71c-4.68,0-9.16,.95-13.25,2.65-4.18,1.78-8.08,4.39-11.26,7.62-3.19,3.23-5.76,7.12-7.54,11.39-1.65,4.1-2.61,8.66-2.61,13.37v213.86c0,4.76,.95,9.28,2.61,13.38,1.78,4.27,4.35,8.16,7.54,11.38,3.19,3.23,7.08,5.8,11.31,7.62,4.06,1.66,8.53,2.65,13.21,2.65h0Zm233.07,6.21H140.71c-5.47,0-10.76-1.12-15.57-3.14-5.01-2.07-9.53-5.14-13.3-8.94-3.77-3.77-6.75-8.37-8.86-13.42-1.99-4.84-3.1-10.19-3.1-15.74V155.86c0-5.55,1.12-10.89,3.1-15.77,2.07-5.05,5.09-9.56,8.86-13.38,3.77-3.81,8.28-6.83,13.3-8.94,4.8-2.03,10.11-3.15,15.57-3.15h233.07c5.55,0,10.77,1.12,15.61,3.15,5.01,2.11,9.48,5.13,13.25,8.94,3.77,3.81,6.87,8.32,8.91,13.38,2.02,4.89,3.15,10.23,3.15,15.77v213.86c0,5.59-1.12,10.89-3.15,15.77-2.12,5.01-5.14,9.61-8.91,13.38-3.77,3.81-8.24,6.87-13.25,8.94-4.84,2.02-10.15,3.14-15.61,3.14h0Z"/>
      <path class="cls-2" d="M104.44,91.38c.42,1.65-.58,3.39-2.19,3.81-1.7,.45-3.35-.58-3.77-2.2l-1.41-5.22c-.42-1.7,.54-3.35,2.19-3.81,1.62-.42,3.35,.54,3.77,2.24l1.41,5.17h0Z"/>
      <path class="cls-2" d="M100.96,98.09c.45,1.62-.54,3.35-2.15,3.81l-5.64,1.49c-1.62,.46-3.35-.54-3.77-2.15-.42-1.7,.54-3.4,2.19-3.81l5.59-1.57c1.65-.42,3.31,.54,3.77,2.24h0Z"/>
      <polygon class="cls-2" points="92.55 274.51 86.63 276.29 85.02 270.7 85.02 270.66 90.9 268.87 92.55 274.51"/>
      <polygon class="cls-2" points="88.29 281.88 82.45 283.66 80.75 278.07 80.75 278.03 86.63 276.29 88.29 281.88"/>
      <polygon class="cls-2" points="85.02 270.66 85.02 270.7 79.13 272.47 77.48 266.85 83.36 265.11 85.02 270.66"/>
      <polygon class="cls-2" points="79.1 272.47 80.75 278.03 80.75 278.07 74.87 279.85 73.17 274.22 79.1 272.44 79.1 272.47"/>
    </g>
  </g>
</svg>